<svg width="35" height="22" viewBox="0 0 35 22" fill="none" xmlns="http://www.w3.org/2000/svg">
<path d="M20.75 11.5C20.75 12.362 20.4076 13.1886 19.7981 13.7981C19.1886 14.4076 18.362 14.75 17.5 14.75C16.638 14.75 15.8114 14.4076 15.2019 13.7981C14.5924 13.1886 14.25 12.362 14.25 11.5C14.25 10.638 14.5924 9.8114 15.2019 9.2019C15.8114 8.59241 16.638 8.25 17.5 8.25C18.362 8.25 19.1886 8.59241 19.7981 9.2019C20.4076 9.81139 20.75 10.638 20.75 11.5Z" stroke="#4A4A4A" stroke-width="2.5" stroke-linecap="round" stroke-linejoin="round"/>
<path d="M17.1429 20.5C9.9972 20.5 4.28312 16.5749 1.64424 11C4.28312 5.42505 9.9972 1.5 17.1429 1.5C24.2885 1.5 30.0026 5.42505 32.6415 11C30.0026 16.5749 24.2885 20.5 17.1429 20.5Z" stroke="#4A4A4A" stroke-width="3" stroke-linecap="round" stroke-linejoin="round"/>
</svg>
