<svg width="35" height="24" viewBox="0 0 35 24" fill="none" xmlns="http://www.w3.org/2000/svg">
<path d="M17.1429 0.888889C15.3135 0.880147 13.4908 1.09749 11.7214 1.53535L13.8643 3.65657C14.9475 3.48569 16.0446 3.40458 17.1429 3.41414C19.3069 3.32781 21.4646 3.6901 23.464 4.47547C25.4633 5.26085 27.2555 6.45018 28.7143 7.9596C29.8518 9.15549 30.7714 10.5208 31.4357 12C30.7714 13.4792 29.8518 14.8445 28.7143 16.0404C28.4571 16.303 28.2 16.5657 27.9214 16.8081L29.8286 18.6061C31.8502 16.7694 33.3782 14.5048 34.2857 12C33.082 8.6524 30.7622 5.76157 27.6726 3.75905C24.583 1.75653 20.8893 0.749713 17.1429 0.888889ZM27.8571 20.202L25.9286 18.3838L10.9929 4.42424L8.85 2.40404L6.3 0L4.41429 1.77778L6.55714 3.79798C3.51009 5.81307 1.21538 8.68341 0 12C1.20372 15.3476 3.52353 18.2384 6.61313 20.241C9.70273 22.2435 13.3964 23.2503 17.1429 23.1111C19.962 23.1464 22.7555 22.6018 25.3286 21.5152L27.9857 24L29.8714 22.2222L27.7286 20.202H27.8571ZM14.2714 11.0707L17.85 14.4444C17.5938 14.4742 17.3347 14.4742 17.0786 14.4444C16.3352 14.4845 15.604 14.2528 15.0372 13.7975C14.4704 13.3422 14.1117 12.6983 14.0357 12C14.0398 11.6775 14.1203 11.36 14.2714 11.0707ZM17.1429 20.5859C14.9788 20.6722 12.8211 20.3099 10.8217 19.5245C8.82241 18.7392 7.03017 17.5498 5.57143 16.0404C4.43386 14.8445 3.51427 13.4792 2.85 12C3.51427 10.5208 4.43386 9.15549 5.57143 7.9596C6.44984 7.04961 7.45975 6.26073 8.57143 5.61616L12.3 9.23232C11.6839 10.038 11.3538 11.0068 11.3571 12C11.3819 12.6908 11.5517 13.3701 11.8565 13.9987C12.1614 14.6273 12.5953 15.1927 13.1333 15.6623C13.6712 16.1319 14.3025 16.4964 14.9907 16.7346C15.6789 16.9729 16.4104 17.0803 17.1429 17.0505C18.1297 17.0526 19.1017 16.8235 19.9714 16.3838L23.3571 19.5758C21.3698 20.2718 19.2627 20.6143 17.1429 20.5859Z" fill="#4A4A4A"/>
</svg>
