<svg width="26" height="26" viewBox="0 0 26 26" fill="none" xmlns="http://www.w3.org/2000/svg">
<path d="M25 25L18.9251 18.9251M18.9251 18.9251C19.9002 17.9501 20.6736 16.7925 21.2013 15.5186C21.729 14.2446 22.0006 12.8792 22.0006 11.5003C22.0006 10.1214 21.729 8.75597 21.2013 7.48201C20.6736 6.20806 19.9002 5.05051 18.9251 4.07547C17.9501 3.10042 16.7925 2.32698 15.5186 1.79929C14.2446 1.2716 12.8792 1 11.5003 1C10.1214 1 8.75597 1.2716 7.48201 1.79929C6.20806 2.32698 5.05051 3.10042 4.07547 4.07547C2.10628 6.04466 1 8.71545 1 11.5003C1 14.2852 2.10628 16.9559 4.07547 18.9251C6.04466 20.8943 8.71545 22.0006 11.5003 22.0006C14.2852 22.0006 16.9559 20.8943 18.9251 18.9251Z" stroke="black" stroke-width="2" stroke-linecap="round" stroke-linejoin="round"/>
</svg>
