<svg width="24" height="24" viewBox="0 0 24 24" fill="none" xmlns="http://www.w3.org/2000/svg">
<g clip-path="url(#clip0_826_1515)">
<rect width="24" height="24" rx="12" fill="black"/>
<path d="M11.9999 14.4008C14.6519 14.4008 16.7999 12.2528 16.7999 9.60078C16.7999 6.94878 14.6519 4.80078 11.9999 4.80078C9.3479 4.80078 7.1999 6.94878 7.1999 9.60078C7.1999 12.2528 9.3479 14.4008 11.9999 14.4008ZM11.9999 16.8008C8.7959 16.8008 2.3999 18.4088 2.3999 21.6008V22.8008C2.3999 23.4608 2.9399 24.0008 3.5999 24.0008H20.3999C21.0599 24.0008 21.5999 23.4608 21.5999 22.8008V21.6008C21.5999 18.4088 15.2039 16.8008 11.9999 16.8008Z" fill="#E0E0E0"/>
</g>
<defs>
<clipPath id="clip0_826_1515">
<rect width="24" height="24" rx="12" fill="white"/>
</clipPath>
</defs>
</svg>
