<svg width="35" height="24" viewBox="0 0 35 24" fill="none" xmlns="http://www.w3.org/2000/svg">
<path d="M33.5832 3.77335C33.3881 3.04951 33.0068 2.3894 32.4773 1.85871C31.9478 1.32801 31.2886 0.945248 30.5652 0.748513C27.8829 0.0120024 17.1521 1.30114e-05 17.1521 1.30114e-05C17.1521 1.30114e-05 6.42306 -0.0119771 3.73908 0.69199C3.01614 0.897779 2.35824 1.28596 1.82855 1.81925C1.29885 2.35255 0.915135 3.01306 0.714247 3.73738C0.00685408 6.41965 2.50953e-06 11.9829 2.50953e-06 11.9829C2.50953e-06 11.9829 -0.00684873 17.5735 0.695406 20.2284C1.08935 21.6963 2.2455 22.8558 3.7151 23.2515C6.42478 23.988 17.1264 24 17.1264 24C17.1264 24 27.8572 24.012 30.5395 23.3097C31.2632 23.1133 31.923 22.7315 32.4538 22.2018C32.9847 21.6722 33.368 21.0132 33.5661 20.29C34.2752 17.6095 34.2803 12.048 34.2803 12.048C34.2803 12.048 34.3146 6.45562 33.5832 3.77335ZM13.7197 17.1367L13.7282 6.85984L22.6469 12.0069L13.7197 17.1367Z" fill="#FF1010"/>
</svg>
